<mxfile host="app.diagrams.net" modified="2024-07-01T14:26:13.203Z" agent="Mozilla/5.0 (Windows NT 10.0; Win64; x64) AppleWebKit/537.36 (KHTML, like Gecko) Chrome/126.0.0.0 Safari/537.36" version="24.6.3" etag="e38xVOHPRN74FTK9Z-YD" type="github">
  <diagram name="Page-1" id="j_XVo2HbSWCVngbkCBSb">
    <mxGraphModel>
      <root>
        <mxCell id="0" />
        <mxCell id="1" parent="0" />
      </root>
    </mxGraphModel>
  </diagram>
</mxfile>
